PathFileType	4	(X/Y/Z)	C:/Users/opensim2020/Desktop/walking_exp_matlab/subject06_walking12_straigt_04.trc																																																																																																																																														
DataRate	CameraRate	NumFrames	NumMarkers	Units	OrigDataRate	OrigDataStartFrame	OrigNumFrames																																																																																																																																										
100	100	6	48	mm	100	2879	181																																																																																																																																										
Frame#	Time	LFHD			RFHD			LBHD			RBHD			C7			T10			CLAV			STRN			RBAK			LSHO			LUPA			LELB			LFRM			LWRA			LWRB			LFIN			RSHO			RUPA			RELB			RFRM			RWRA			RWRB			RFIN			LASI			RASI			LPSI			RPSI			LTHI			LKNE			LTIB			LANK			LHEE			LTOE			RTHI			RKNE			RTIB			RANK			RHEE			RTOE			*39			*40			*41			*42			*43			*44			*45			*46			*47		
		X1	Y1	Z1	X2	Y2	Z2	X3	Y3	Z3	X4	Y4	Z4	X5	Y5	Z5	X6	Y6	Z6	X7	Y7	Z7	X8	Y8	Z8	X9	Y9	Z9	X10	Y10	Z10	X11	Y11	Z11	X12	Y12	Z12	X13	Y13	Z13	X14	Y14	Z14	X15	Y15	Z15	X16	Y16	Z16	X17	Y17	Z17	X18	Y18	Z18	X19	Y19	Z19	X20	Y20	Z20	X21	Y21	Z21	X22	Y22	Z22	X23	Y23	Z23	X24	Y24	Z24	X25	Y25	Z25	X26	Y26	Z26	X27	Y27	Z27	X28	Y28	Z28	X29	Y29	Z29	X30	Y30	Z30	X31	Y31	Z31	X32	Y32	Z32	X33	Y33	Z33	X34	Y34	Z34	X35	Y35	Z35	X36	Y36	Z36	X37	Y37	Z37	X38	Y38	Z38	X39	Y39	Z39	X40	Y40	Z40	X41	Y41	Z41	X42	Y42	Z42	X43	Y43	Z43	X44	Y44	Z44	X45	Y45	Z45	X46	Y46	Z46	X47	Y47	Z47	X48	Y48	Z48
																																																																																																																																																	
114	1.13	67.28194	1668.63562	-1522.87512	59.20266	1655.01721	-1391.39197	-66.64533	1614.35986	-1531.61597	-72.98652	1606.85083	-1402.64807	-72.44698	1455.90588	-1474.90637	-108.1193	1126.82837	-1468.71667	37.1064	1378.77563	-1469.04321	76.78619	1203.71948	-1474.69519	-148.53633	1287.0835	-1397.61938	-10.74247	1410.3075	-1632.53711	8.149	1210.57959	-1709.39209	19.39892	1098.87109	-1725.71387	75.79762	959.09692	-1744.39771	150.54761	858.18707	-1691.61169	100.08205	841.862	-1739.10291	157.85452	773.28333	-1734.19507	-12.76754	1410.82507	-1309.65845	-60.95108	1211.66394	-1226.45215	-58.53695	1088.86328	-1219.3302	-52.75238	968.17456	-1205.02734	-6.08876	824.51141	-1239.08215	-60.14017	830.26837	-1198.4856	-30.99182	750.88391	-1198.4801	74.92472	968.15216	-1574.82629	68.76718	973.14197	-1353.96265	-84.45228	994.31879	-1550.25122	-83.0153	992.3277	-1381.99207	10.68007	650.59827	-1622.75659	8.74695	487.32764	-1593.20874	-58.23901	238.07028	-1575.60535	-89.26344	71.86448	-1523.6781	-131.28242	61.57057	-1478.60303	53.15219	39.42117	-1521.5719	99.63172	652.8526	-1288.11328	151.64873	537.76343	-1305.57861	28.28741	309.43002	-1311.60962	-62.57381	148.09085	-1356.36975	-103.14809	136.21918	-1406.42358	60.52756	60.62843	-1337.28479	-36.47147	1706.18311	-1468.50952	NaN	NaN	NaN	NaN	NaN	NaN	NaN	NaN	NaN	NaN	NaN	NaN	NaN	NaN	NaN	NaN	NaN	NaN	NaN	NaN	NaN	NaN	NaN	NaN
115	1.14	77.33223	1668.26855	-1522.81775	68.91586	1654.51855	-1391.29492	-56.64882	1614.15698	-1531.87842	-63.27817	1606.51123	-1402.84412	-62.80682	1455.62402	-1475.33508	-98.7585	1126.56299	-1469.17249	46.60499	1378.37024	-1469.35669	86.21738	1203.22827	-1475.31921	-139.12097	1286.68604	-1398.39148	-1.071	1410.19373	-1632.75208	20.27626	1211.1062	-1710.43958	33.91166	1099.66101	-1727.33191	94.83688	961.74738	-1745.69153	173.02658	863.7851	-1692.51917	123.14277	845.50751	-1739.92859	183.54796	779.23126	-1734.95422	-3.31487	1410.23035	-1309.9425	-53.48851	1211.37598	-1227.02832	-52.26148	1088.66309	-1219.7334	-48.63121	967.90631	-1205.09375	-4.66233	822.95453	-1238.12549	-58.67112	830.30255	-1197.95898	-31.75535	749.99805	-1197.6615	83.51592	967.20905	-1575.4585	78.53961	972.94214	-1354.55127	-75.78646	993.84845	-1550.22217	-73.44881	992.20245	-1381.81458	16.84283	649.83093	-1622.5769	13.4429	486.65125	-1593.10107	-55.90581	237.97601	-1575.30664	-88.92005	72.12896	-1523.56433	-131.31921	62.21091	-1478.54272	53.47725	39.50645	-1521.32178	111.88215	654.11664	-1288.7998	163.76823	539.16339	-1306.92432	49.30111	304.69733	-1312.18042	-32.40769	138.30083	-1356.38452	-72.23133	124.0099	-1406.32568	95.20154	57.96585	-1336.90845	-26.52772	1705.87659	-1468.54297	NaN	NaN	NaN	NaN	NaN	NaN	NaN	NaN	NaN	NaN	NaN	NaN	NaN	NaN	NaN	NaN	NaN	NaN	NaN	NaN	NaN	NaN	NaN	NaN
116	1.15	87.04818	1667.8324	-1522.59302	78.56083	1653.89832	-1391.19287	-46.80263	1613.96545	-1532.10156	-53.66566	1606.06396	-1403.09888	-53.2257	1455.23938	-1475.64722	-89.4293	1126.15588	-1469.37537	56.14364	1377.85168	-1469.61743	95.56841	1202.66138	-1475.89514	-129.69473	1286.20862	-1399.12585	8.7789	1409.96704	-1632.92981	32.30376	1211.57935	-1711.3949	48.07557	1100.42603	-1728.89429	113.44509	964.4187	-1746.82251	195.04523	869.67072	-1693.34705	145.77734	849.21552	-1740.48413	208.76807	785.5929	-1735.51941	6.11627	1409.55383	-1310.11389	-46.22755	1211.11926	-1227.5376	-45.95412	1088.39929	-1220.01868	-44.47449	967.70062	-1205.04443	-3.23768	821.7876	-1237.48352	-57.03528	830.30408	-1197.48816	-32.15924	749.39087	-1196.84033	91.34531	966.04761	-1575.9657	88.35699	972.61523	-1355.1925	-67.214	993.21051	-1550.00159	-63.87274	991.95392	-1381.66736	22.77167	649.05255	-1622.66455	18.2974	485.88684	-1592.88599	-53.49137	237.90784	-1575.07324	-88.53083	72.40736	-1523.52173	-131.12929	62.74721	-1478.50208	53.36798	39.32249	-1521.1925	123.30042	655.06177	-1289.18909	175.09886	540.04358	-1308.09119	70.20607	299.78149	-1312.46252	-1.6522	128.71338	-1356.25867	-40.77186	112.26762	-1406.13916	130.42651	55.8278	-1336.39905	-16.6795	1705.48608	-1468.53223	NaN	NaN	NaN	NaN	NaN	NaN	NaN	NaN	NaN	NaN	NaN	NaN	NaN	NaN	NaN	NaN	NaN	NaN	NaN	NaN	NaN	NaN	NaN	NaN
117	1.16	96.94669	1667.31116	-1522.41541	88.22134	1653.29016	-1391.04517	-36.94987	1613.52979	-1532.15137	-44.0397	1605.51465	-1403.23511	-43.63178	1454.75073	-1475.7959	-80.04501	1125.69556	-1469.63367	65.65539	1377.20496	-1469.80029	104.97522	1201.95923	-1476.38794	-120.14387	1285.63574	-1399.79028	18.52741	1409.65259	-1633.05457	44.28222	1211.9845	-1712.27783	61.99278	1101.15015	-1730.37207	131.67719	967.245	-1747.97559	216.47314	875.80463	-1694.02637	168.00459	853.27802	-1740.90454	233.48244	792.33356	-1735.93127	15.57299	1408.84668	-1310.30273	-38.83529	1210.91187	-1228.10266	-39.65119	1088.20398	-1220.18323	-40.20305	967.47314	-1204.95276	-1.60874	820.69879	-1236.76196	-55.32791	830.36981	-1196.8689	-31.78759	748.96729	-1196.02087	99.67612	964.98303	-1576.64941	98.13015	972.11951	-1355.7666	-58.57648	992.49396	-1549.66003	-54.31287	991.54266	-1381.3208	29.31504	648.42279	-1622.2854	23.21886	485.17932	-1592.64087	-51.03642	237.90285	-1574.86951	-88.19926	72.73689	-1523.46887	-130.66496	63.20861	-1478.45642	53.56093	39.44261	-1521.08911	134.70531	655.67169	-1289.59363	185.60402	540.3819	-1309.07178	91.4019	294.70111	-1312.54089	29.75346	119.54134	-1355.76453	-8.47057	100.86591	-1405.96887	165.42924	53.82437	-1336.43469	-6.90846	1704.9873	-1468.50122	NaN	NaN	NaN	NaN	NaN	NaN	NaN	NaN	NaN	NaN	NaN	NaN	NaN	NaN	NaN	NaN	NaN	NaN	NaN	NaN	NaN	NaN	NaN	NaN
118	1.17	106.73553	1666.75525	-1522.21045	97.71192	1652.49902	-1390.82715	-27.17623	1613.05554	-1532.29089	-34.41544	1604.86462	-1403.3584	-33.9784	1454.22351	-1476.16809	-70.68014	1125.15759	-1469.60803	75.15945	1376.52014	-1469.99133	114.3376	1201.22693	-1476.84363	-110.62375	1284.99512	-1400.23657	28.37705	1409.35779	-1633.18591	56.15664	1212.32947	-1713.04529	75.57108	1101.82751	-1731.67627	149.19644	969.98694	-1748.50183	237.41745	882.18585	-1694.6947	189.65103	857.47626	-1741.11572	257.58505	799.38397	-1736.2179	25.0954	1408.05457	-1310.42688	-31.45513	1210.72949	-1228.50989	-33.30245	1088.04358	-1220.3562	-36.18794	967.43304	-1204.93298	0.80521	819.85791	-1235.90161	-52.879	830.61426	-1196.35278	-30.9943	748.73438	-1195.08557	107.2038	963.49817	-1577.15576	107.80148	971.50623	-1356.38159	-49.92511	991.74286	-1549.19885	-44.72248	991.04248	-1380.8739	35.65221	647.43866	-1622.4491	28.17706	484.4469	-1592.45801	-48.67619	237.87524	-1574.75977	-87.81863	73.11945	-1523.42017	-130.66945	64.00356	-1478.49597	53.60479	39.41288	-1520.97791	145.24873	655.68628	-1289.8689	195.48007	540.23236	-1309.97815	111.93892	289.40125	-1312.69287	61.48773	110.87872	-1355.44373	23.7	90.25395	-1405.05017	200.9162	52.54833	-1336.15833	2.82225	1704.37415	-1468.37659	NaN	NaN	NaN	NaN	NaN	NaN	NaN	NaN	NaN	NaN	NaN	NaN	NaN	NaN	NaN	NaN	NaN	NaN	NaN	NaN	NaN	NaN	NaN	NaN
119	1.18	116.5068	1666.10437	-1521.96277	107.34155	1651.71692	-1390.61865	-17.43939	1612.42053	-1532.30176	-24.80718	1604.09302	-1403.39233	-24.33509	1453.52954	-1476.2113	-61.2295	1124.48022	-1469.44702	84.79198	1375.83862	-1470.12036	123.84502	1200.42053	-1477.26587	-101.06826	1284.3075	-1400.61084	38.21265	1408.92529	-1633.20264	67.88763	1212.61731	-1713.65955	88.97541	1102.51965	-1732.81885	166.64845	973.02917	-1749.66394	257.86047	888.71698	-1695.18079	210.80908	861.90784	-1741.14429	281.04315	806.60052	-1736.27954	34.64867	1407.26282	-1310.5437	-24.01737	1210.57373	-1228.76379	-27.00826	1087.92407	-1220.37866	-31.69011	967.2663	-1204.9126	3.57707	819.20599	-1234.99219	-50.10566	830.8847	-1195.74414	-29.53766	748.52155	-1194.1604	116.689	962.89246	-1577.88965	117.59245	970.7807	-1356.93054	-41.27727	990.97095	-1548.6582	-35.16691	990.40771	-1380.37817	42.10508	646.67883	-1622.26355	33.11806	483.68405	-1592.16064	-46.37973	237.90462	-1574.59241	-87.40946	73.62873	-1523.3634	-130.37648	64.70412	-1478.40613	53.72009	39.56068	-1520.99561	154.97768	655.02386	-1290.07959	204.78891	539.45282	-1310.6499	133.16196	284.82468	-1312.69128	93.34232	103.0527	-1354.92834	56.8072	80.71298	-1404.67236	235.98729	51.87913	-1336.02588	12.52663	1703.68823	-1468.26978	NaN	NaN	NaN	NaN	NaN	NaN	NaN	NaN	NaN	NaN	NaN	NaN	NaN	NaN	NaN	NaN	NaN	NaN	NaN	NaN	NaN	NaN	NaN	NaN
